<?xml version="1.0" encoding="UTF-8"?>
<svg xmlns="http://www.w3.org/2000/svg" xmlns:xlink="http://www.w3.org/1999/xlink" width="60pt" height="60pt" viewBox="0 0 60 60" version="1.1">
<g id="surface1">
<path style=" stroke:none;fill-rule:nonzero;fill:rgb(0%,0%,0%);fill-opacity:1;" d="M 55.917969 15.660156 C 53.238281 11.066406 49.601562 7.433594 45.011719 4.753906 C 40.417969 2.074219 35.40625 0.734375 29.96875 0.734375 C 24.53125 0.734375 19.515625 2.074219 14.925781 4.753906 C 10.335938 7.433594 6.699219 11.066406 4.019531 15.660156 C 1.339844 20.25 0 25.265625 0 30.699219 C 0 37.230469 1.90625 43.105469 5.714844 48.320312 C 9.527344 53.535156 14.449219 57.144531 20.484375 59.148438 C 21.1875 59.277344 21.707031 59.1875 22.046875 58.875 C 22.386719 58.5625 22.554688 58.171875 22.554688 57.703125 C 22.554688 57.625 22.546875 56.925781 22.535156 55.597656 C 22.519531 54.269531 22.515625 53.113281 22.515625 52.125 L 21.617188 52.28125 C 21.042969 52.386719 20.324219 52.429688 19.453125 52.417969 C 18.582031 52.40625 17.675781 52.3125 16.738281 52.144531 C 15.800781 51.976562 14.929688 51.585938 14.125 50.972656 C 13.320312 50.363281 12.746094 49.5625 12.410156 48.574219 L 12.019531 47.675781 C 11.757812 47.078125 11.347656 46.414062 10.789062 45.6875 C 10.230469 44.957031 9.664062 44.464844 9.089844 44.203125 L 8.820312 44.007812 C 8.636719 43.878906 8.46875 43.722656 8.3125 43.539062 C 8.15625 43.359375 8.039062 43.175781 7.960938 42.992188 C 7.882812 42.8125 7.945312 42.660156 8.15625 42.542969 C 8.363281 42.425781 8.742188 42.371094 9.285156 42.371094 L 10.066406 42.484375 C 10.585938 42.589844 11.230469 42.902344 12 43.421875 C 12.765625 43.941406 13.398438 44.617188 13.890625 45.449219 C 14.488281 46.519531 15.210938 47.332031 16.058594 47.890625 C 16.902344 48.449219 17.753906 48.730469 18.613281 48.730469 C 19.472656 48.730469 20.210938 48.664062 20.835938 48.535156 C 21.460938 48.40625 22.046875 48.207031 22.59375 47.949219 C 22.828125 46.207031 23.464844 44.867188 24.503906 43.929688 C 23.023438 43.773438 21.6875 43.539062 20.503906 43.226562 C 19.320312 42.914062 18.097656 42.40625 16.835938 41.703125 C 15.574219 41.003906 14.527344 40.128906 13.695312 39.089844 C 12.863281 38.050781 12.179688 36.683594 11.648438 34.992188 C 11.113281 33.300781 10.847656 31.351562 10.847656 29.140625 C 10.847656 25.992188 11.875 23.3125 13.929688 21.101562 C 12.96875 18.734375 13.058594 16.082031 14.203125 13.140625 C 14.957031 12.90625 16.078125 13.082031 17.558594 13.667969 C 19.042969 14.253906 20.128906 14.753906 20.816406 15.171875 C 21.507812 15.585938 22.058594 15.9375 22.476562 16.222656 C 24.894531 15.546875 27.394531 15.210938 29.96875 15.210938 C 32.542969 15.210938 35.042969 15.546875 37.460938 16.222656 L 38.945312 15.289062 C 39.957031 14.664062 41.15625 14.089844 42.535156 13.570312 C 43.914062 13.050781 44.964844 12.90625 45.695312 13.140625 C 46.867188 16.082031 46.96875 18.734375 46.007812 21.101562 C 48.0625 23.3125 49.089844 25.992188 49.089844 29.140625 C 49.089844 31.351562 48.824219 33.308594 48.289062 35.011719 C 47.757812 36.71875 47.066406 38.082031 46.222656 39.109375 C 45.375 40.136719 44.324219 41.003906 43.0625 41.703125 C 41.800781 42.40625 40.578125 42.914062 39.394531 43.226562 C 38.210938 43.539062 36.875 43.773438 35.394531 43.929688 C 36.746094 45.101562 37.421875 46.949219 37.421875 49.46875 L 37.421875 57.703125 C 37.421875 58.171875 37.585938 58.5625 37.910156 58.875 C 38.234375 59.183594 38.75 59.277344 39.453125 59.144531 C 45.488281 57.144531 50.410156 53.535156 54.222656 48.316406 C 58.03125 43.101562 59.9375 37.230469 59.9375 30.699219 C 59.9375 25.265625 58.597656 20.25 55.917969 15.660156 Z M 55.917969 15.660156 "/>
</g>
</svg>
